<svg xmlns="http://www.w3.org/2000/svg"  viewBox="0 0 24 24" width="24px" height="24px"><path d="M17.493,9.082L11,8V3c0-1.104-0.896-2-2-2S7,1.896,7,3v10.064l-0.186-0.186c-1.172-1.172-3.071-1.172-4.243,0 l-0.279,0.279c-0.391,0.391-0.391,1.024,0,1.414l5.641,5.641l0.141-0.141C8.682,20.643,9.494,21,10.395,21h7.335 c1.254,0,2.27-1.016,2.27-2.27v-6.689C20,10.574,18.94,9.323,17.493,9.082z" opacity=".35"/><path d="M19.5,19c-0.386,0-11.614,0-12,0C6.672,19,6,19.672,6,20.5S6.672,22,7.5,22c0.386,0,11.614,0,12,0	c0.828,0,1.5-0.672,1.5-1.5S20.328,19,19.5,19z"/></svg>